<svg width="112" height="40" viewBox="0 0 112 40" fill="none" xmlns="http://www.w3.org/2000/svg">
  <path
    d="M39.3648 24.9969H20.002V14.9949H29.9969L29.9988 14.9985L39.3648 24.9969Z"
    fill="url(#paint0_linear_30546_4496)"
  />
  <path
    d="M39.3657 24.9968C38.9152 26.7482 38.2275 28.4299 37.3217 29.995C35.5612 33.0345 33.0362 35.5603 29.9978 37.3214C22.1583 41.8466 12.258 40.5414 5.85814 34.139C-0.54169 27.7366 -1.84579 17.8328 2.67838 9.99103C4.43937 6.95537 6.96364 4.4334 10.0005 2.67562C11.9426 1.54999 14.0618 0.762741 16.2677 0.34749C17.4979 0.115542 18.7472 -0.000791442 19.9991 4.05206e-06H29.9978V10.0002H19.9991C15.1476 10.0016 10.9972 13.4867 10.1551 18.2662C9.31306 23.0457 12.0224 27.7402 16.5812 29.4006C21.1399 31.061 26.2324 29.2081 28.6595 25.0059L39.3657 24.9968Z"
    fill="url(#paint1_linear_30546_4496)"
  />
  <path
    d="M68.9145 8.30813C69.7457 8.91996 70.5039 9.62528 71.1743 10.4102L67.3089 13.5431C64.6375 10.5813 60.4189 9.57153 56.6971 11.0031C52.9754 12.4348 50.5192 16.012 50.5188 20.0015V20.3777H50.5269C50.6796 24.2949 53.1876 27.7296 56.8709 29.066C60.5543 30.4024 64.6797 29.3743 67.3062 26.4654V20.3804H72.2736V28.1628C69.9285 31.6479 66.1978 33.9546 62.0336 34.4945C57.8693 35.0344 53.6743 33.7552 50.5188 30.9833C50.0446 30.5679 49.5984 30.1215 49.1833 29.6471C46.9214 27.0816 45.6359 23.8004 45.5527 20.3804V20.0042C45.5503 16.4555 46.8411 13.0276 49.1833 10.3627C49.599 9.88703 50.0461 9.43971 50.5215 9.02377C55.7088 4.45551 63.3883 4.15671 68.9145 8.30813ZM81.5448 14.5181V33.9369H76.5231V14.5181H81.5448ZM97.7112 6.06342C100.595 6.06342 103.166 6.74453 105.343 8.12764C107.456 9.4708 109.089 11.259 110.177 13.4351C111.208 15.4981 111.731 17.6984 111.731 19.9825C111.731 22.2666 111.208 24.4669 110.177 26.5299C109.089 28.706 107.456 30.4942 105.343 31.8374C103.199 33.1998 100.672 33.8811 97.8401 33.9011L97.7112 33.9016H87.1282V20.3847H92.1499L92.1499 28.877L97.7112 28.8771C99.6431 28.8771 101.256 28.4593 102.576 27.6429L102.65 27.5962C104.003 26.7364 105.01 25.6334 105.685 24.2829C106.369 22.915 106.709 21.4836 106.709 19.9825C106.709 18.4814 106.369 17.05 105.685 15.6821C105.01 14.3316 104.003 13.2285 102.65 12.3688C101.342 11.5373 99.7401 11.1041 97.8202 11.0883L97.7112 11.0879H89.6391L87.1282 11.0874V6.06342H97.7112ZM81.5448 6.09873V11.1232H76.5231V6.09873H81.5448Z"
    fill="#0B1B42"
  />
  <defs>
    <linearGradient
      id="paint0_linear_30546_4496"
      x1="19.9837"
      y1="18.6571"
      x2="28.6545"
      y2="27.3308"
      gradientUnits="userSpaceOnUse"
    >
      <stop stopColor="#0D85FD" />
      <stop offset="1" stopColor="#3A9DFF" />
    </linearGradient>
    <linearGradient
      id="paint1_linear_30546_4496"
      x1="23.8033"
      y1="38.7442"
      x2="12.9768"
      y2="0.973788"
      gradientUnits="userSpaceOnUse"
    >
      <stop stopColor="#0D85FD" />
      <stop offset="0.1" stopColor="#1388FD" />
      <stop offset="0.67" stopColor="#2F97FF" />
      <stop offset="1" stopColor="#3A9DFF" />
    </linearGradient>
  </defs>
</svg>