<svg
  width="140"
  height="30"
  viewBox="0 0 140 30"
  fill="none"
  xmlns="http://www.w3.org/2000/svg"
>
  <path
    d="M29.534 18.7477H15.0068V11.2462H22.5057L22.507 11.2489L29.534 18.7477Z"
    fill="url(#paint0_linear_30189_3440)"
  />
  <path
    d="M29.5341 18.7478C29.1962 20.0614 28.6802 21.3226 28.0006 22.4965C26.6798 24.7762 24.7854 26.6705 22.5058 27.9914C19.6451 29.6421 16.3197 30.3029 13.0452 29.8713C9.77077 29.4398 6.73014 27.94 4.39479 25.6045C2.05945 23.269 0.559858 20.2283 0.128533 16.9538C-0.302792 13.6793 0.358245 10.3539 2.00915 7.49335C3.33035 5.21659 5.22421 3.32509 7.50263 2.00673C8.95973 1.16251 10.5497 0.572062 12.2047 0.260621C13.1277 0.0866582 14.0649 -0.000596627 15.0042 3.07021e-06H22.5058V7.50022H15.0042C13.6876 7.5006 12.3943 7.84749 11.2542 8.50604C10.1141 9.16458 9.16745 10.1116 8.5093 11.2519C7.85115 12.3922 7.50471 13.6856 7.50479 15.0023C7.50487 16.3189 7.85146 17.6123 8.50975 18.7525C9.16804 19.8927 10.1148 20.8396 11.255 21.498C12.3952 22.1564 13.6885 22.5032 15.0051 22.5034C16.3217 22.5036 17.6152 22.1573 18.7556 21.4993C19.896 20.8412 20.8431 19.8946 21.5017 18.7546L29.5341 18.7478Z"
    fill="url(#paint1_linear_30189_3440)"
  />
  <path
    d="M70.4516 12.8366C69.901 12.0096 69.1919 11.3001 68.3653 10.7489C67.1441 9.93938 65.7114 9.50763 64.2462 9.50763C62.781 9.50763 61.3483 9.93938 60.1271 10.7489C59.302 11.3005 58.5944 12.01 58.045 12.8366C57.3001 13.9587 56.8734 15.2618 56.8104 16.6072C56.7474 17.9526 57.0503 19.2898 57.687 20.4767C58.3237 21.6635 59.2703 22.6555 60.4261 23.3471C61.5818 24.0386 62.9035 24.4038 64.2503 24.4038C65.5972 24.4038 66.9188 24.0386 68.0746 23.3471C69.2303 22.6555 70.1769 21.6635 70.8136 20.4767C71.4503 19.2898 71.7533 17.9526 71.6903 16.6072C71.6272 15.2618 71.2006 13.9587 70.4557 12.8366H70.4516ZM59.6553 16.9516C59.6556 16.0436 59.925 15.1561 60.4297 14.4013C60.9343 13.6466 61.6514 13.0583 62.4903 12.7111C63.3292 12.3638 64.2522 12.2731 65.1427 12.4504C66.0332 12.6277 66.8511 13.065 67.493 13.7071C68.1349 14.3492 68.572 15.1673 68.749 16.0578C68.9261 16.9483 68.8351 17.8713 68.4875 18.7101C68.14 19.5489 67.5516 20.2658 66.7967 20.7702C66.0417 21.2746 65.1542 21.5438 64.2462 21.5438C63.0291 21.5438 61.8618 21.0605 61.0009 20.2002C60.14 19.3398 59.656 18.1728 59.6553 16.9557V16.9516Z"
    fill="black"
  />
  <path
    d="M54.447 14.8708V20.0831C54.2128 20.4312 53.9557 20.7634 53.6775 21.0775C52.8298 22.0429 51.8003 22.8318 50.6476 23.3992C49.495 23.9666 48.2419 24.3014 46.9599 24.3845C45.6779 24.4675 44.392 24.2972 43.1758 23.8832C41.9596 23.4693 40.8369 22.8198 39.8718 21.9718C38.8559 21.0834 38.0357 19.9935 37.4634 18.7713C36.891 17.5491 36.5789 16.2213 36.5469 14.8721C36.5469 14.7889 36.5469 14.7053 36.5469 14.6211C36.5439 12.2446 37.4087 9.94874 38.9788 8.16475C39.2576 7.84617 39.5573 7.54649 39.8759 7.26769C41.5623 5.78425 43.7081 4.92683 45.9523 4.83965C48.1966 4.75246 50.4025 5.44083 52.1988 6.78898C52.7539 7.19889 53.2602 7.67108 53.7077 8.1963L51.118 10.2936C50.244 9.32386 49.0965 8.64199 47.827 8.33797C46.5575 8.03395 45.2256 8.12208 44.0072 8.59072C42.7888 9.05935 41.7412 9.88647 41.0026 10.9629C40.264 12.0393 39.8693 13.3143 39.8704 14.6198V14.8708C39.9189 16.1546 40.3495 17.3947 41.1068 18.4324C41.8642 19.4701 42.914 20.2582 44.1219 20.6958C45.3298 21.1335 46.6408 21.2007 47.8871 20.889C49.1334 20.5773 50.2584 19.9007 51.118 18.946V14.8708H54.447Z"
    fill="black"
  />
  <path
    d="M80.883 12.5321V9.97947H78.0272V5.918H75.17V9.97947H73.4321V12.5321H75.17V21.5535C75.17 21.6543 75.1754 21.755 75.1865 21.8552C75.261 22.5567 75.5924 23.2059 76.1168 23.6776C76.6413 24.1494 77.3217 24.4105 78.0272 24.4106H80.883V21.8552H79.4551C79.0764 21.8552 78.7132 21.7048 78.4454 21.437C78.1776 21.1693 78.0272 20.8061 78.0272 20.4274V12.5321H80.883Z"
    fill="black"
  />
  <path
    d="M129.911 12.5321V9.97947H127.055V5.918H124.198V9.97947H122.46V12.5321H124.198V21.5535C124.198 21.655 124.198 21.7565 124.213 21.8552C124.288 22.5569 124.62 23.206 125.145 23.6778C125.669 24.1495 126.35 24.4106 127.055 24.4106H129.911V21.8552H128.483C128.105 21.8552 127.742 21.7048 127.474 21.437C127.206 21.1693 127.055 20.8061 127.055 20.4274V12.5321H129.911Z"
    fill="black"
  />
  <path
    d="M97.7212 16.9557V24.4038H94.8641V16.9557C94.8646 16.3531 94.7464 15.7563 94.5162 15.1994C94.2861 14.6426 93.9484 14.1365 93.5226 13.7102C93.0967 13.2838 92.5911 12.9455 92.0345 12.7147C91.4778 12.4839 90.8812 12.3649 90.2786 12.3648V12.3648C89.061 12.3648 87.8933 12.8484 87.0324 13.7094C86.1714 14.5704 85.6877 15.7381 85.6877 16.9557C85.6877 18.1733 86.1714 19.341 87.0324 20.202C87.8933 21.0629 89.061 21.5466 90.2786 21.5466H92.5734V24.4038H90.2786C88.612 24.4073 86.9928 23.8491 85.6822 22.8195C85.2087 22.4475 84.7814 22.0201 84.4093 21.5466C83.5499 20.4469 83.0168 19.1279 82.8709 17.7399C82.725 16.3518 82.972 14.9508 83.5839 13.6964C84.1958 12.442 85.1479 11.3848 86.3316 10.6454C87.5153 9.906 88.883 9.51412 90.2786 9.51447C92.2537 9.51447 94.148 10.299 95.5447 11.6955C96.9415 13.092 97.7264 14.9861 97.7267 16.9612L97.7212 16.9557Z"
    fill="black"
  />
  <path
    d="M119.968 10.0425H117.111V24.4024H119.968V10.0425Z"
    fill="black"
  />
  <path
    d="M119.968 5.9111H117.111V8.76825H119.968V5.9111Z"
    fill="black"
  />
  <path
    d="M113.524 15.2521C113.085 14.6222 112.526 14.0853 111.878 13.672C112.147 13.3954 112.384 13.0905 112.586 12.7626C113.087 11.9443 113.351 11.0033 113.35 10.0439C113.351 9.8657 113.342 9.68758 113.323 9.51035C113.192 8.22775 112.589 7.03942 111.632 6.17573C110.675 5.31205 109.431 4.83454 108.142 4.83576H100.077V24.4024H108.754C109.818 24.4025 110.861 24.1109 111.771 23.5594C112.681 23.0079 113.422 22.2176 113.914 21.2743C114.406 20.331 114.63 19.2708 114.562 18.2091C114.494 17.1473 114.136 16.1246 113.527 15.2521H113.524ZM102.931 7.31982H108.143C108.864 7.31982 109.556 7.60625 110.066 8.11609C110.576 8.62593 110.862 9.31741 110.862 10.0384C110.862 10.7595 110.576 11.451 110.066 11.9608C109.556 12.4706 108.864 12.7571 108.143 12.7571H102.931V7.31982ZM108.751 21.9087H102.931V15.2466H108.751C109.623 15.2643 110.453 15.623 111.063 16.2458C111.673 16.8686 112.015 17.7057 112.015 18.5777C112.015 19.4496 111.673 20.2868 111.063 20.9096C110.453 21.5323 109.623 21.891 108.751 21.9087V21.9087Z"
    fill="black"
  />
  <defs>
    <linearGradient
      id="paint0_linear_30189_3440"
      x1="14.9931"
      y1="11.2338"
      x2="25.2654"
      y2="21.5061"
      gradientUnits="userSpaceOnUse"
    >
      <stop stopColor="#0D85FD" />
      <stop offset="1" stopColor="#3A9DFF" />
    </linearGradient>
    <linearGradient
      id="paint1_linear_30189_3440"
      x1="17.9588"
      y1="29.0585"
      x2="9.81662"
      y2="0.662509"
      gradientUnits="userSpaceOnUse"
    >
      <stop stopColor="#0D85FD" />
      <stop offset="0.1" stopColor="#1388FD" />
      <stop offset="0.67" stopColor="#2F97FF" />
      <stop offset="1" stopColor="#3A9DFF" />
    </linearGradient>
  </defs>
</svg>